<svg width="206" height="23" viewBox="0 0 206 23" fill="none" xmlns="http://www.w3.org/2000/svg">
<path d="M192.328 22C191.776 22 191.328 21.5522 191.328 21V1.52796C191.328 0.97567 191.776 0.527954 192.328 0.527954H204.68C205.232 0.527954 205.68 0.975669 205.68 1.52795V3.95995C205.68 4.51224 205.232 4.95995 204.68 4.95995H197.448C196.896 4.95995 196.448 5.40767 196.448 5.95995V8.08795C196.448 8.64024 196.896 9.08795 197.448 9.08795H204.104C204.656 9.08795 205.104 9.53567 205.104 10.088V12.536C205.104 13.0882 204.656 13.536 204.104 13.536H197.448C196.896 13.536 196.448 13.9837 196.448 14.536V16.52C196.448 17.0722 196.896 17.52 197.448 17.52H204.68C205.232 17.52 205.68 17.9677 205.68 18.52V21C205.68 21.5522 205.232 22 204.68 22H192.328Z" fill="white"/>
<path d="M176.707 22.512C174.904 22.512 173.288 22.032 171.859 21.072C170.44 20.112 169.315 18.7893 168.483 17.104C167.662 15.408 167.251 13.4613 167.251 11.264C167.251 9.61064 167.491 8.10131 167.971 6.73597C168.462 5.35997 169.155 4.17597 170.051 3.18398C170.958 2.18131 172.035 1.40797 173.283 0.863974C174.542 0.319974 175.939 0.0479736 177.475 0.0479736C179.8 0.0479736 181.694 0.575974 183.155 1.63198C184.379 2.50756 185.307 3.80223 185.94 5.51599C186.144 6.0681 185.775 6.64967 185.196 6.7536L181.631 7.39324C181.166 7.4765 180.716 7.21916 180.487 6.80705C180.181 6.25792 179.818 5.80222 179.395 5.43997C178.798 4.92797 178.062 4.67197 177.187 4.67197C176.355 4.67197 175.603 4.93864 174.931 5.47198C174.27 6.00531 173.747 6.76264 173.363 7.74397C172.979 8.72531 172.787 9.89864 172.787 11.264C172.787 12.6186 172.979 13.792 173.363 14.784C173.747 15.7653 174.27 16.5226 174.931 17.056C175.603 17.5893 176.355 17.856 177.187 17.856C178.008 17.856 178.739 17.6853 179.379 17.344C180.03 16.992 180.536 16.5226 180.899 15.936C181.193 15.4654 181.371 14.9584 181.434 14.415C181.462 14.1692 181.66 13.968 181.907 13.968C182.154 13.968 182.356 14.1687 182.35 14.4161C182.317 15.9772 182.111 17.3425 181.731 18.512C181.315 19.792 180.691 20.7786 179.859 21.472C179.027 22.1653 177.976 22.512 176.707 22.512ZM182.964 22C182.468 22 182.046 21.6351 181.975 21.1434L181.469 17.6553C181.462 17.6078 181.459 17.5599 181.459 17.5119V14.7685C181.459 14.2192 181.016 13.7727 180.466 13.7685L178.179 13.7514C177.63 13.7473 177.187 13.3008 177.187 12.7514V11.608C177.187 11.0557 177.635 10.608 178.187 10.608H185.323C185.875 10.608 186.323 11.0557 186.323 11.608V21C186.323 21.5523 185.875 22 185.323 22H182.964Z" fill="white"/>
<path d="M147.954 22C147.402 22 146.954 21.5522 146.954 21V1.52796C146.954 0.97567 147.402 0.527954 147.954 0.527954H155.338C158.026 0.527954 160.111 1.14662 161.594 2.38395C163.087 3.61062 163.834 5.25862 163.834 7.32795C163.834 9.35462 163.087 10.9813 161.594 12.208C160.111 13.424 158.026 14.032 155.338 14.032H153.074C152.522 14.032 152.074 14.4797 152.074 15.032V21C152.074 21.5522 151.626 22 151.074 22H147.954ZM158.77 22C158.392 22 158.047 21.7874 157.877 21.4505L153.654 13.0825C153.318 12.4174 153.802 11.632 154.547 11.632H157.778C158.122 11.632 158.441 11.8084 158.624 12.0991L163.893 20.4671C164.312 21.1331 163.834 22 163.047 22H158.77ZM152.074 9.70395C152.074 10.2562 152.522 10.704 153.074 10.704H154.762C156.031 10.704 156.981 10.4426 157.61 9.91995C158.25 9.38662 158.57 8.70929 158.57 7.88795C158.57 7.03462 158.298 6.33595 157.754 5.79195C157.221 5.23729 156.415 4.95995 155.338 4.95995H153.074C152.522 4.95995 152.074 5.40767 152.074 5.95995V9.70395Z" fill="white"/>
<path d="M132.676 22.512C130.639 22.512 128.858 22.0853 127.332 21.232C125.818 20.368 124.639 19.0986 123.796 17.424C122.954 15.7386 122.532 13.664 122.532 11.2C122.532 8.67198 122.954 6.58664 123.796 4.94397C124.639 3.29064 125.818 2.06397 127.332 1.26398C128.858 0.453307 130.639 0.0479736 132.676 0.0479736C134.735 0.0479736 136.527 0.469307 138.052 1.31197C139.588 2.15464 140.778 3.40264 141.62 5.05597C142.463 6.70931 142.884 8.75731 142.884 11.2C142.884 13.7066 142.463 15.8026 141.62 17.488C140.778 19.1626 139.588 20.4213 138.052 21.264C136.527 22.096 134.735 22.512 132.676 22.512ZM132.676 17.92C134.17 17.92 135.364 17.3333 136.26 16.16C137.156 14.976 137.604 13.312 137.604 11.168C137.604 9.15197 137.156 7.56264 136.26 6.39997C135.364 5.22664 134.17 4.63997 132.676 4.63997C131.226 4.63997 130.052 5.22664 129.156 6.39997C128.26 7.56264 127.812 9.16264 127.812 11.2C127.812 13.3226 128.26 14.976 129.156 16.16C130.052 17.3333 131.226 17.92 132.676 17.92Z" fill="white"/>
<path d="M106.61 22C106.058 22 105.61 21.5522 105.61 21V1.52796C105.61 0.97567 106.058 0.527954 106.61 0.527954H118.61C119.163 0.527954 119.61 0.975669 119.61 1.52795V3.95995C119.61 4.51224 119.163 4.95995 118.61 4.95995H111.73C111.178 4.95995 110.73 5.40767 110.73 5.95995V8.16795C110.73 8.72024 111.178 9.16795 111.73 9.16795H117.682C118.235 9.16795 118.682 9.61567 118.682 10.168V12.536C118.682 13.0882 118.235 13.536 117.682 13.536H111.73C111.178 13.536 110.73 13.9837 110.73 14.536V21C110.73 21.5522 110.283 22 109.73 22H106.61Z" fill="white"/>
<path d="M95.2949 0.837719C95.4836 0.639892 95.745 0.527954 96.0184 0.527954H100.196C101.083 0.527954 101.531 1.597 100.909 2.22928L89.6872 13.635C89.0596 14.2728 87.9743 13.8285 87.9743 12.9336V8.91242C87.9743 8.65536 88.0733 8.40818 88.2508 8.22218L95.2949 0.837719ZM91.4204 9.93046C91.8344 9.53356 92.4967 9.56544 92.8706 10.0003L101.77 20.3479C102.327 20.9963 101.867 22 101.011 22H97.112C96.8168 22 96.5367 21.8695 96.3467 21.6436L89.2974 13.261C88.9582 12.8577 88.9902 12.2603 89.3707 11.8956L91.4204 9.93046ZM83.1104 1.52796C83.1104 0.97567 83.5581 0.527954 84.1104 0.527954H87.2624C87.8146 0.527954 88.2624 0.975669 88.2624 1.52795V21C88.2624 21.5522 87.8146 22 87.2624 22H84.1104C83.5581 22 83.1104 21.5522 83.1104 21V1.52796Z" fill="white"/>
<path d="M70.3015 22.512C68.4241 22.512 66.7708 22.0906 65.3415 21.248C63.9228 20.4053 62.8135 19.152 62.0135 17.488C61.2135 15.824 60.8135 13.76 60.8135 11.296C60.8135 8.82131 61.2081 6.75197 61.9975 5.08797C62.7975 3.42397 63.9121 2.17064 65.3415 1.32797C66.7708 0.474641 68.4241 0.0479736 70.3015 0.0479736C73.0108 0.0479736 75.0748 0.687974 76.4935 1.96797C77.6865 3.04437 78.4722 4.38854 78.8505 6.0005C78.973 6.52239 78.6046 7.01631 78.0764 7.10797L74.4823 7.73166C73.9723 7.82016 73.4887 7.49992 73.2877 7.02288C73.0602 6.4829 72.7688 6.01393 72.4135 5.61597C71.8908 5.00797 71.1868 4.70397 70.3015 4.70397C69.5121 4.70397 68.8135 4.94397 68.2055 5.42397C67.6081 5.89331 67.1441 6.61331 66.8135 7.58397C66.4828 8.55464 66.3175 9.79197 66.3175 11.296C66.3175 12.768 66.4881 13.9893 66.8295 14.96C67.1708 15.92 67.6401 16.6346 68.2375 17.104C68.8455 17.5733 69.5335 17.808 70.3015 17.808C71.4001 17.808 72.2215 17.52 72.7655 16.944C73.0805 16.6043 73.3042 16.2235 73.4368 15.8016C73.6024 15.2747 74.0292 14.816 74.5815 14.816H77.9895C78.5418 14.816 78.9955 15.2648 78.9459 15.8148C78.8352 17.0418 78.5137 18.1115 77.9815 19.024C77.3201 20.1653 76.3441 21.0346 75.0535 21.632C73.7628 22.2186 72.1788 22.512 70.3015 22.512Z" fill="white"/>
<path d="M47.8637 22.512C45.8264 22.512 44.0451 22.0853 42.5197 21.232C41.0051 20.368 39.8264 19.0986 38.9837 17.424C38.1411 15.7386 37.7197 13.664 37.7197 11.2C37.7197 8.67198 38.1411 6.58664 38.9837 4.94397C39.8264 3.29064 41.0051 2.06397 42.5197 1.26398C44.0451 0.453307 45.8264 0.0479736 47.8637 0.0479736C49.9224 0.0479736 51.7144 0.469307 53.2397 1.31197C54.7757 2.15464 55.9651 3.40264 56.8077 5.05597C57.6504 6.70931 58.0717 8.75731 58.0717 11.2C58.0717 13.7066 57.6504 15.8026 56.8077 17.488C55.9651 19.1626 54.7757 20.4213 53.2397 21.264C51.7144 22.096 49.9224 22.512 47.8637 22.512ZM47.8637 17.92C49.3571 17.92 50.5517 17.3333 51.4477 16.16C52.3437 14.976 52.7917 13.312 52.7917 11.168C52.7917 9.15197 52.3437 7.56264 51.4477 6.39997C50.5517 5.22664 49.3571 4.63997 47.8637 4.63997C46.4131 4.63997 45.2397 5.22664 44.3437 6.39997C43.4477 7.56264 42.9997 9.16264 42.9997 11.2C42.9997 13.3226 43.4477 14.976 44.3437 16.16C45.2397 17.3333 46.4131 17.92 47.8637 17.92Z" fill="white"/>
<path d="M26.4491 0.527954C27.0014 0.527954 27.4491 0.975669 27.4491 1.52795V16.52C27.4491 17.0722 27.8968 17.52 28.4491 17.52H34.5611C35.1134 17.52 35.5611 17.9677 35.5611 18.52V21C35.5611 21.5522 35.1134 22 34.5611 22H23.3291C22.7768 22 22.3291 21.5522 22.3291 21V1.52796C22.3291 0.97567 22.7768 0.527954 23.3291 0.527954H26.4491Z" fill="white"/>
<path d="M1.7041 22C1.15182 22 0.704102 21.5522 0.704102 21V1.52796C0.704102 0.97567 1.15182 0.527954 1.7041 0.527954H10.0001C11.7388 0.527954 13.1788 0.783954 14.3201 1.29595C15.4614 1.79729 16.3148 2.48529 16.8801 3.35995C17.4561 4.22395 17.7441 5.20529 17.7441 6.30395C17.7441 7.48795 17.4028 8.49062 16.7201 9.31195C16.4998 9.58125 16.2565 9.82646 15.9903 10.0476C15.4847 10.4676 15.5287 11.626 16.0801 11.984C16.6881 12.3786 17.1734 12.9013 17.5361 13.552C17.9094 14.192 18.0961 14.9866 18.0961 15.936C18.0961 16.5653 17.9788 17.232 17.7441 17.936C17.5094 18.64 17.0988 19.3013 16.5121 19.92C15.9254 20.528 15.1094 21.0293 14.0641 21.424C13.0188 21.808 11.6854 22 10.0641 22H1.7041ZM5.8241 16.52C5.8241 17.0722 6.27182 17.52 6.8241 17.52H9.9041C10.7681 17.52 11.4241 17.36 11.8721 17.04C12.3201 16.7093 12.5441 16.2346 12.5441 15.616C12.5441 14.9973 12.3308 14.5013 11.9041 14.128C11.4881 13.7546 10.8214 13.568 9.9041 13.568H6.8241C6.27182 13.568 5.8241 14.0157 5.8241 14.568V16.52ZM6.8241 4.95995C6.27182 4.95995 5.8241 5.40767 5.8241 5.95995V8.05595C5.8241 8.60824 6.27182 9.05595 6.8241 9.05595H9.7761C10.7574 9.05595 11.4561 8.86929 11.8721 8.49595C12.2881 8.12262 12.4961 7.63729 12.4961 7.03995C12.4961 6.46395 12.2881 5.97329 11.8721 5.56795C11.4668 5.16262 10.7788 4.95995 9.8081 4.95995H6.8241Z" fill="white"/>
</svg>
